<svg xmlns="http://www.w3.org/2000/svg" xmlns:xlink="http://www.w3.org/1999/xlink" width="500" zoomAndPan="magnify" viewBox="0 0 375 374.999991" height="500" preserveAspectRatio="xMidYMid meet" version="1.0"><path fill="#63339a" d="M 337.546875 135.992188 C 335.15625 133.429688 332.703125 130.929688 330.1875 128.492188 C 327.667969 126.054688 325.089844 123.6875 322.453125 121.382812 C 319.8125 119.078125 317.117188 116.84375 314.363281 114.675781 C 311.613281 112.511719 308.804688 110.417969 305.945312 108.394531 C 303.082031 106.371094 300.171875 104.425781 297.210938 102.550781 C 294.25 100.679688 291.246094 98.882812 288.191406 97.164062 C 285.140625 95.445312 282.046875 93.808594 278.910156 92.246094 C 275.773438 90.6875 272.597656 89.210938 269.386719 87.8125 C 266.175781 86.414062 262.929688 85.101562 259.648438 83.871094 C 256.371094 82.640625 253.0625 81.496094 249.722656 80.433594 C 246.382812 79.375 243.019531 78.398438 239.632812 77.511719 C 236.246094 76.621094 232.835938 75.820312 229.40625 75.109375 C 225.976562 74.394531 222.53125 73.769531 219.070312 73.234375 C 215.609375 72.695312 212.136719 72.25 208.652344 71.890625 C 205.167969 71.53125 201.675781 71.261719 198.179688 71.082031 C 194.679688 70.902344 191.179688 70.8125 187.675781 70.8125 C 184.175781 70.8125 180.675781 70.902344 177.175781 71.082031 C 173.679688 71.261719 170.1875 71.53125 166.703125 71.890625 C 163.21875 72.25 159.746094 72.695312 156.285156 73.234375 C 152.824219 73.769531 149.378906 74.394531 145.949219 75.109375 C 142.519531 75.820312 139.109375 76.621094 135.722656 77.511719 C 132.335938 78.398438 128.972656 79.375 125.632812 80.433594 C 122.292969 81.496094 118.984375 82.640625 115.707031 83.871094 C 112.425781 85.101562 109.179688 86.414062 105.96875 87.8125 C 102.757812 89.210938 99.582031 90.6875 96.445312 92.246094 C 93.308594 93.808594 90.214844 95.445312 87.164062 97.164062 C 84.109375 98.882812 81.101562 100.679688 78.144531 102.550781 C 75.183594 104.425781 72.273438 106.371094 69.410156 108.394531 C 66.550781 110.417969 63.742188 112.511719 60.992188 114.675781 C 58.238281 116.84375 55.542969 119.078125 52.902344 121.382812 C 50.265625 123.6875 47.6875 126.054688 45.167969 128.492188 C 42.652344 130.929688 40.199219 133.429688 37.808594 135.992188 C 37.207031 136.628906 36.667969 137.316406 36.199219 138.058594 C 35.730469 138.800781 35.339844 139.578125 35.023438 140.398438 C 34.710938 141.21875 34.476562 142.058594 34.328125 142.921875 C 34.179688 143.789062 34.113281 144.660156 34.136719 145.535156 C 34.160156 146.414062 34.265625 147.277344 34.457031 148.136719 C 34.652344 148.992188 34.925781 149.820312 35.28125 150.621094 C 35.636719 151.425781 36.066406 152.183594 36.574219 152.902344 C 37.078125 153.617188 37.648438 154.277344 38.28125 154.882812 C 38.917969 155.488281 39.605469 156.027344 40.347656 156.496094 C 41.089844 156.964844 41.867188 157.355469 42.6875 157.671875 C 43.503906 157.988281 44.347656 158.222656 45.210938 158.371094 C 46.074219 158.519531 46.945312 158.585938 47.820312 158.5625 C 48.699219 158.542969 49.5625 158.4375 50.421875 158.246094 C 51.277344 158.050781 52.105469 157.777344 52.90625 157.421875 C 53.707031 157.066406 54.46875 156.636719 55.183594 156.132812 C 55.902344 155.628906 56.5625 155.058594 57.167969 154.421875 C 59.246094 152.1875 61.382812 150.007812 63.570312 147.882812 C 65.761719 145.757812 68.003906 143.6875 70.300781 141.679688 C 72.597656 139.667969 74.945312 137.71875 77.339844 135.828125 C 79.738281 133.9375 82.179688 132.113281 84.671875 130.347656 C 87.160156 128.585938 89.695312 126.886719 92.273438 125.25 C 94.847656 123.617188 97.46875 122.050781 100.125 120.550781 C 102.78125 119.050781 105.476562 117.621094 108.207031 116.261719 C 110.941406 114.898438 113.703125 113.609375 116.503906 112.390625 C 119.300781 111.171875 122.125 110.027344 124.984375 108.953125 C 127.839844 107.878906 130.722656 106.878906 133.628906 105.953125 C 136.535156 105.027344 139.464844 104.175781 142.417969 103.402344 C 145.371094 102.625 148.339844 101.929688 151.324219 101.304688 C 154.3125 100.683594 157.3125 100.136719 160.328125 99.667969 C 163.34375 99.199219 166.371094 98.808594 169.40625 98.496094 C 172.441406 98.183594 175.480469 97.949219 178.53125 97.792969 C 181.578125 97.636719 184.625 97.558594 187.675781 97.558594 C 190.730469 97.558594 193.777344 97.636719 196.824219 97.792969 C 199.875 97.949219 202.914062 98.183594 205.949219 98.496094 C 208.984375 98.808594 212.011719 99.199219 215.027344 99.667969 C 218.039062 100.136719 221.042969 100.683594 224.03125 101.304688 C 227.015625 101.929688 229.984375 102.625 232.9375 103.402344 C 235.890625 104.175781 238.820312 105.027344 241.726562 105.953125 C 244.632812 106.878906 247.515625 107.878906 250.371094 108.953125 C 253.230469 110.027344 256.054688 111.171875 258.851562 112.390625 C 261.652344 113.609375 264.414062 114.898438 267.148438 116.261719 C 269.878906 117.621094 272.574219 119.050781 275.230469 120.550781 C 277.886719 122.050781 280.507812 123.617188 283.082031 125.25 C 285.660156 126.886719 288.195312 128.585938 290.683594 130.347656 C 293.175781 132.113281 295.617188 133.9375 298.015625 135.828125 C 300.410156 137.71875 302.757812 139.667969 305.054688 141.679688 C 307.351562 143.6875 309.59375 145.757812 311.785156 147.882812 C 313.972656 150.007812 316.109375 152.1875 318.1875 154.421875 C 318.792969 155.058594 319.453125 155.628906 320.167969 156.136719 C 320.886719 156.640625 321.648438 157.070312 322.449219 157.425781 C 323.25 157.78125 324.078125 158.058594 324.9375 158.25 C 325.792969 158.441406 326.660156 158.550781 327.535156 158.570312 C 328.414062 158.59375 329.285156 158.527344 330.148438 158.378906 C 331.011719 158.230469 331.855469 157.996094 332.671875 157.679688 C 333.492188 157.363281 334.273438 156.972656 335.011719 156.503906 C 335.753906 156.03125 336.441406 155.496094 337.078125 154.890625 C 337.714844 154.285156 338.285156 153.625 338.789062 152.90625 C 339.296875 152.1875 339.726562 151.429688 340.082031 150.625 C 340.4375 149.824219 340.710938 148.996094 340.902344 148.136719 C 341.097656 147.28125 341.203125 146.414062 341.226562 145.539062 C 341.246094 144.660156 341.183594 143.789062 341.03125 142.925781 C 340.882812 142.058594 340.648438 141.21875 340.335938 140.398438 C 340.019531 139.578125 339.625 138.800781 339.15625 138.058594 C 338.6875 137.316406 338.152344 136.628906 337.546875 135.992188 Z M 337.546875 135.992188 " fill-opacity="1" fill-rule="nonzero"/><path fill="#63339a" d="M 187.675781 121.699219 C 182.144531 121.707031 176.625 121.992188 171.121094 122.5625 C 165.613281 123.132812 160.152344 123.984375 154.734375 125.113281 C 149.316406 126.242188 143.972656 127.644531 138.699219 129.320312 C 133.421875 130.996094 128.246094 132.9375 123.171875 135.140625 C 118.097656 137.347656 113.144531 139.804688 108.320312 142.519531 C 103.496094 145.230469 98.820312 148.179688 94.300781 151.371094 C 89.777344 154.558594 85.425781 157.972656 81.253906 161.605469 C 77.078125 165.242188 73.101562 169.078125 69.320312 173.121094 C 68.714844 173.757812 68.179688 174.445312 67.710938 175.1875 C 67.242188 175.929688 66.847656 176.710938 66.535156 177.527344 C 66.21875 178.347656 65.988281 179.1875 65.835938 180.054688 C 65.6875 180.917969 65.625 181.789062 65.644531 182.664062 C 65.667969 183.542969 65.773438 184.410156 65.96875 185.265625 C 66.160156 186.121094 66.433594 186.949219 66.789062 187.753906 C 67.144531 188.554688 67.578125 189.3125 68.082031 190.03125 C 68.585938 190.75 69.15625 191.410156 69.792969 192.015625 C 70.425781 192.617188 71.117188 193.15625 71.855469 193.625 C 72.597656 194.09375 73.378906 194.488281 74.195312 194.804688 C 75.015625 195.117188 75.855469 195.351562 76.71875 195.5 C 77.582031 195.652344 78.453125 195.714844 79.332031 195.695312 C 80.207031 195.671875 81.074219 195.566406 81.929688 195.375 C 82.785156 195.183594 83.613281 194.910156 84.414062 194.554688 C 85.21875 194.199219 85.976562 193.769531 86.695312 193.261719 C 87.410156 192.757812 88.074219 192.1875 88.679688 191.554688 C 90.253906 189.855469 91.871094 188.199219 93.53125 186.585938 C 95.191406 184.972656 96.894531 183.402344 98.636719 181.878906 C 100.375 180.351562 102.15625 178.871094 103.972656 177.433594 C 105.789062 176 107.644531 174.613281 109.53125 173.273438 C 111.421875 171.933594 113.34375 170.644531 115.296875 169.402344 C 117.253906 168.164062 119.238281 166.972656 121.253906 165.835938 C 123.269531 164.695312 125.3125 163.609375 127.386719 162.578125 C 129.457031 161.542969 131.554688 160.5625 133.675781 159.636719 C 135.800781 158.710938 137.945312 157.84375 140.113281 157.027344 C 142.277344 156.210938 144.464844 155.453125 146.671875 154.75 C 148.875 154.046875 151.097656 153.402344 153.339844 152.8125 C 155.578125 152.222656 157.832031 151.691406 160.097656 151.21875 C 162.363281 150.746094 164.640625 150.332031 166.929688 149.976562 C 169.214844 149.621094 171.511719 149.324219 173.8125 149.085938 C 176.117188 148.851562 178.425781 148.671875 180.738281 148.550781 C 183.046875 148.433594 185.363281 148.375 187.675781 148.375 C 189.992188 148.375 192.304688 148.433594 194.617188 148.550781 C 196.929688 148.671875 199.238281 148.851562 201.542969 149.085938 C 203.84375 149.324219 206.140625 149.621094 208.425781 149.976562 C 210.714844 150.332031 212.992188 150.746094 215.257812 151.21875 C 217.523438 151.691406 219.777344 152.222656 222.015625 152.8125 C 224.257812 153.402344 226.480469 154.046875 228.683594 154.75 C 230.890625 155.453125 233.078125 156.210938 235.242188 157.027344 C 237.410156 157.84375 239.554688 158.710938 241.679688 159.636719 C 243.800781 160.5625 245.898438 161.542969 247.96875 162.578125 C 250.039062 163.609375 252.085938 164.695312 254.101562 165.835938 C 256.117188 166.972656 258.101562 168.164062 260.058594 169.402344 C 262.011719 170.644531 263.933594 171.933594 265.824219 173.273438 C 267.710938 174.613281 269.566406 176 271.382812 177.433594 C 273.199219 178.871094 274.980469 180.351562 276.71875 181.878906 C 278.460938 183.402344 280.164062 184.972656 281.824219 186.585938 C 283.484375 188.199219 285.101562 189.855469 286.675781 191.554688 C 287.28125 192.1875 287.945312 192.761719 288.660156 193.265625 C 289.378906 193.769531 290.136719 194.203125 290.941406 194.558594 C 291.742188 194.914062 292.570312 195.1875 293.425781 195.378906 C 294.28125 195.574219 295.148438 195.679688 296.027344 195.703125 C 296.902344 195.722656 297.773438 195.660156 298.640625 195.507812 C 299.503906 195.359375 300.34375 195.125 301.164062 194.808594 C 301.984375 194.496094 302.761719 194.101562 303.503906 193.632812 C 304.246094 193.164062 304.933594 192.625 305.570312 192.019531 C 306.207031 191.414062 306.777344 190.753906 307.28125 190.035156 C 307.785156 189.320312 308.21875 188.558594 308.574219 187.757812 C 308.929688 186.953125 309.203125 186.125 309.394531 185.269531 C 309.585938 184.414062 309.695312 183.546875 309.714844 182.667969 C 309.738281 181.789062 309.671875 180.917969 309.523438 180.054688 C 309.375 179.191406 309.140625 178.347656 308.824219 177.527344 C 308.511719 176.710938 308.117188 175.929688 307.648438 175.1875 C 307.179688 174.445312 306.640625 173.757812 306.035156 173.121094 C 302.253906 169.078125 298.277344 165.242188 294.101562 161.605469 C 289.929688 157.972656 285.578125 154.558594 281.054688 151.371094 C 276.535156 148.179688 271.859375 145.230469 267.035156 142.519531 C 262.210938 139.804688 257.257812 137.347656 252.183594 135.140625 C 247.109375 132.9375 241.933594 130.996094 236.65625 129.320312 C 231.382812 127.644531 226.039062 126.242188 220.621094 125.113281 C 215.203125 123.984375 209.742188 123.132812 204.234375 122.5625 C 198.730469 121.992188 193.210938 121.707031 187.675781 121.699219 Z M 187.675781 121.699219 " fill-opacity="1" fill-rule="nonzero"/><path fill="#63339a" d="M 187.675781 172.386719 C 183.644531 172.390625 179.625 172.601562 175.613281 173.019531 C 171.601562 173.433594 167.621094 174.054688 163.675781 174.875 C 159.726562 175.699219 155.832031 176.722656 151.988281 177.941406 C 148.144531 179.164062 144.375 180.578125 140.675781 182.183594 C 136.976562 183.789062 133.367188 185.582031 129.851562 187.558594 C 126.335938 189.53125 122.929688 191.683594 119.632812 194.003906 C 116.339844 196.328125 113.167969 198.816406 110.125 201.464844 C 107.085938 204.109375 104.183594 206.90625 101.429688 209.851562 C 100.820312 210.492188 100.28125 211.183594 99.8125 211.929688 C 99.339844 212.675781 98.949219 213.460938 98.632812 214.285156 C 98.316406 215.109375 98.082031 215.957031 97.933594 216.828125 C 97.785156 217.695312 97.722656 218.574219 97.746094 219.453125 C 97.769531 220.335938 97.878906 221.207031 98.074219 222.070312 C 98.265625 222.929688 98.542969 223.761719 98.902344 224.570312 C 99.261719 225.375 99.695312 226.136719 100.207031 226.859375 C 100.714844 227.578125 101.289062 228.242188 101.929688 228.851562 C 102.570312 229.457031 103.261719 229.996094 104.007812 230.46875 C 104.753906 230.9375 105.539062 231.332031 106.363281 231.648438 C 107.1875 231.964844 108.03125 232.195312 108.902344 232.347656 C 109.769531 232.496094 110.648438 232.558594 111.527344 232.535156 C 112.410156 232.511719 113.28125 232.402344 114.140625 232.207031 C 115.003906 232.011719 115.835938 231.734375 116.640625 231.375 C 117.445312 231.019531 118.210938 230.582031 118.929688 230.074219 C 119.652344 229.566406 120.3125 228.988281 120.921875 228.351562 C 121.984375 227.207031 123.078125 226.097656 124.199219 225.011719 C 125.320312 223.925781 126.46875 222.871094 127.644531 221.84375 C 128.820312 220.820312 130.023438 219.824219 131.25 218.859375 C 132.476562 217.894531 133.726562 216.964844 135 216.0625 C 136.273438 215.164062 137.570312 214.296875 138.890625 213.460938 C 140.207031 212.628906 141.546875 211.828125 142.90625 211.066406 C 144.265625 210.300781 145.644531 209.570312 147.042969 208.875 C 148.441406 208.179688 149.855469 207.523438 151.285156 206.902344 C 152.714844 206.277344 154.160156 205.695312 155.621094 205.144531 C 157.082031 204.597656 158.558594 204.089844 160.042969 203.617188 C 161.53125 203.144531 163.027344 202.710938 164.539062 202.316406 C 166.046875 201.917969 167.566406 201.5625 169.09375 201.246094 C 170.621094 200.925781 172.152344 200.648438 173.695312 200.410156 C 175.238281 200.171875 176.785156 199.972656 178.335938 199.8125 C 179.886719 199.652344 181.441406 199.53125 183 199.453125 C 184.558594 199.375 186.117188 199.332031 187.675781 199.332031 C 189.238281 199.332031 190.796875 199.375 192.355469 199.453125 C 193.914062 199.53125 195.46875 199.652344 197.019531 199.8125 C 198.570312 199.972656 200.117188 200.171875 201.660156 200.410156 C 203.199219 200.648438 204.734375 200.925781 206.261719 201.246094 C 207.789062 201.5625 209.308594 201.917969 210.816406 202.316406 C 212.328125 202.710938 213.824219 203.144531 215.3125 203.617188 C 216.796875 204.089844 218.273438 204.597656 219.734375 205.144531 C 221.195312 205.695312 222.640625 206.277344 224.070312 206.902344 C 225.5 207.523438 226.914062 208.179688 228.3125 208.875 C 229.710938 209.570312 231.085938 210.300781 232.449219 211.066406 C 233.808594 211.828125 235.144531 212.628906 236.464844 213.460938 C 237.785156 214.296875 239.082031 215.164062 240.355469 216.0625 C 241.628906 216.964844 242.878906 217.894531 244.105469 218.859375 C 245.332031 219.824219 246.535156 220.820312 247.710938 221.84375 C 248.886719 222.871094 250.035156 223.925781 251.15625 225.011719 C 252.277344 226.097656 253.371094 227.207031 254.433594 228.351562 C 255.039062 228.984375 255.699219 229.554688 256.417969 230.0625 C 257.132812 230.566406 257.894531 230.996094 258.695312 231.355469 C 259.5 231.710938 260.328125 231.984375 261.183594 232.175781 C 262.039062 232.367188 262.90625 232.476562 263.785156 232.496094 C 264.660156 232.519531 265.53125 232.457031 266.394531 232.304688 C 267.261719 232.15625 268.101562 231.921875 268.921875 231.605469 C 269.738281 231.292969 270.519531 230.898438 271.261719 230.429688 C 272.003906 229.960938 272.691406 229.421875 273.328125 228.816406 C 273.960938 228.210938 274.53125 227.550781 275.039062 226.832031 C 275.542969 226.117188 275.972656 225.355469 276.328125 224.554688 C 276.683594 223.75 276.957031 222.921875 277.152344 222.066406 C 277.34375 221.207031 277.449219 220.34375 277.472656 219.464844 C 277.496094 218.585938 277.429688 217.714844 277.28125 216.851562 C 277.128906 215.984375 276.898438 215.144531 276.582031 214.324219 C 276.265625 213.507812 275.875 212.726562 275.40625 211.984375 C 274.933594 211.242188 274.398438 210.554688 273.792969 209.917969 C 271.042969 206.976562 268.148438 204.179688 265.113281 201.53125 C 262.074219 198.882812 258.910156 196.398438 255.621094 194.074219 C 252.332031 191.75 248.929688 189.597656 245.421875 187.621094 C 241.910156 185.644531 238.308594 183.851562 234.617188 182.242188 C 230.925781 180.632812 227.160156 179.214844 223.320312 177.988281 C 219.484375 176.765625 215.59375 175.738281 211.652344 174.910156 C 207.710938 174.082031 203.734375 173.457031 199.730469 173.035156 C 195.722656 172.613281 191.707031 172.398438 187.675781 172.386719 Z M 187.675781 172.386719 " fill-opacity="1" fill-rule="nonzero"/><path fill="#63339a" d="M 187.675781 218.265625 C 185.367188 218.265625 183.066406 218.386719 180.769531 218.625 C 178.472656 218.859375 176.191406 219.214844 173.929688 219.683594 C 171.667969 220.15625 169.4375 220.738281 167.238281 221.4375 C 165.035156 222.136719 162.875 222.945312 160.757812 223.863281 C 158.640625 224.785156 156.574219 225.808594 154.558594 226.9375 C 152.546875 228.070312 150.59375 229.300781 148.707031 230.628906 C 146.816406 231.960938 145.003906 233.382812 143.261719 234.898438 C 141.519531 236.414062 139.855469 238.015625 138.277344 239.703125 C 137.671875 240.339844 137.136719 241.027344 136.667969 241.769531 C 136.199219 242.511719 135.804688 243.289062 135.488281 244.109375 C 135.171875 244.929688 134.941406 245.769531 134.792969 246.636719 C 134.640625 247.5 134.578125 248.371094 134.597656 249.25 C 134.621094 250.125 134.726562 250.992188 134.921875 251.851562 C 135.113281 252.707031 135.386719 253.535156 135.742188 254.335938 C 136.097656 255.140625 136.527344 255.898438 137.035156 256.617188 C 137.539062 257.335938 138.109375 257.996094 138.746094 258.601562 C 139.378906 259.207031 140.070312 259.742188 140.8125 260.214844 C 141.550781 260.683594 142.332031 261.074219 143.152344 261.390625 C 143.96875 261.707031 144.8125 261.941406 145.675781 262.089844 C 146.539062 262.238281 147.410156 262.304688 148.289062 262.28125 C 149.164062 262.261719 150.03125 262.152344 150.886719 261.960938 C 151.742188 261.769531 152.574219 261.492188 153.375 261.136719 C 154.175781 260.78125 154.9375 260.351562 155.652344 259.847656 C 156.371094 259.339844 157.03125 258.769531 157.636719 258.132812 C 158.59375 257.101562 159.601562 256.125 160.65625 255.195312 C 161.714844 254.269531 162.816406 253.398438 163.964844 252.585938 C 165.109375 251.773438 166.296875 251.019531 167.519531 250.328125 C 168.746094 249.636719 170.003906 249.007812 171.289062 248.445312 C 172.578125 247.882812 173.894531 247.390625 175.234375 246.960938 C 176.574219 246.535156 177.929688 246.179688 179.308594 245.890625 C 180.683594 245.605469 182.070312 245.386719 183.46875 245.242188 C 184.871094 245.097656 186.273438 245.027344 187.675781 245.027344 C 189.082031 245.027344 190.484375 245.097656 191.882812 245.242188 C 193.285156 245.386719 194.671875 245.605469 196.046875 245.890625 C 197.421875 246.179688 198.78125 246.535156 200.121094 246.960938 C 201.460938 247.390625 202.777344 247.882812 204.0625 248.445312 C 205.351562 249.007812 206.609375 249.636719 207.835938 250.328125 C 209.058594 251.019531 210.242188 251.773438 211.390625 252.585938 C 212.539062 253.398438 213.640625 254.269531 214.695312 255.195312 C 215.753906 256.125 216.761719 257.101562 217.71875 258.132812 C 218.324219 258.769531 218.984375 259.34375 219.699219 259.847656 C 220.417969 260.355469 221.179688 260.785156 221.980469 261.140625 C 222.78125 261.5 223.613281 261.773438 224.46875 261.964844 C 225.324219 262.160156 226.191406 262.265625 227.070312 262.289062 C 227.945312 262.3125 228.816406 262.246094 229.683594 262.097656 C 230.546875 261.949219 231.390625 261.714844 232.210938 261.398438 C 233.027344 261.082031 233.808594 260.691406 234.550781 260.222656 C 235.292969 259.753906 235.980469 259.214844 236.617188 258.609375 C 237.253906 258.003906 237.824219 257.34375 238.328125 256.625 C 238.835938 255.90625 239.265625 255.144531 239.621094 254.34375 C 239.976562 253.539062 240.25 252.710938 240.441406 251.851562 C 240.636719 250.996094 240.742188 250.128906 240.765625 249.25 C 240.785156 248.375 240.71875 247.5 240.570312 246.636719 C 240.417969 245.769531 240.1875 244.929688 239.871094 244.109375 C 239.554688 243.289062 239.160156 242.511719 238.691406 241.769531 C 238.222656 241.027344 237.683594 240.339844 237.078125 239.703125 C 235.5 238.015625 233.835938 236.414062 232.09375 234.898438 C 230.351562 233.382812 228.539062 231.960938 226.648438 230.628906 C 224.761719 229.300781 222.808594 228.070312 220.796875 226.9375 C 218.78125 225.808594 216.714844 224.785156 214.597656 223.863281 C 212.480469 222.945312 210.320312 222.136719 208.117188 221.4375 C 205.917969 220.738281 203.683594 220.15625 201.425781 219.683594 C 199.164062 219.214844 196.882812 218.859375 194.585938 218.625 C 192.289062 218.386719 189.988281 218.265625 187.675781 218.265625 Z M 187.675781 218.265625 " fill-opacity="1" fill-rule="nonzero"/><path fill="#63339a" d="M 207.703125 284.511719 C 207.703125 285.167969 207.671875 285.824219 207.609375 286.476562 C 207.542969 287.128906 207.449219 287.777344 207.320312 288.421875 C 207.191406 289.066406 207.03125 289.699219 206.84375 290.328125 C 206.652344 290.957031 206.429688 291.574219 206.179688 292.179688 C 205.929688 292.785156 205.648438 293.378906 205.339844 293.957031 C 205.03125 294.535156 204.695312 295.097656 204.328125 295.644531 C 203.964844 296.1875 203.574219 296.714844 203.160156 297.222656 C 202.742188 297.730469 202.300781 298.214844 201.839844 298.679688 C 201.375 299.144531 200.890625 299.582031 200.382812 300 C 199.875 300.414062 199.347656 300.804688 198.804688 301.171875 C 198.257812 301.535156 197.695312 301.871094 197.117188 302.179688 C 196.539062 302.492188 195.949219 302.769531 195.339844 303.023438 C 194.734375 303.273438 194.117188 303.492188 193.492188 303.683594 C 192.863281 303.875 192.226562 304.035156 191.585938 304.160156 C 190.941406 304.289062 190.292969 304.386719 189.640625 304.449219 C 188.988281 304.515625 188.332031 304.546875 187.675781 304.546875 C 187.023438 304.546875 186.367188 304.515625 185.714844 304.449219 C 185.0625 304.386719 184.414062 304.289062 183.769531 304.160156 C 183.128906 304.035156 182.492188 303.875 181.863281 303.683594 C 181.238281 303.492188 180.621094 303.273438 180.011719 303.023438 C 179.40625 302.769531 178.816406 302.492188 178.238281 302.179688 C 177.660156 301.871094 177.097656 301.535156 176.550781 301.171875 C 176.007812 300.804688 175.480469 300.414062 174.972656 300 C 174.464844 299.582031 173.980469 299.144531 173.515625 298.679688 C 173.050781 298.214844 172.613281 297.730469 172.195312 297.222656 C 171.78125 296.714844 171.390625 296.1875 171.027344 295.644531 C 170.660156 295.097656 170.324219 294.535156 170.015625 293.957031 C 169.707031 293.378906 169.425781 292.785156 169.175781 292.179688 C 168.925781 291.574219 168.703125 290.957031 168.511719 290.328125 C 168.324219 289.699219 168.164062 289.066406 168.035156 288.421875 C 167.90625 287.777344 167.8125 287.128906 167.746094 286.476562 C 167.683594 285.824219 167.652344 285.167969 167.652344 284.511719 C 167.652344 283.855469 167.683594 283.203125 167.746094 282.550781 C 167.8125 281.894531 167.90625 281.246094 168.035156 280.605469 C 168.164062 279.960938 168.324219 279.324219 168.511719 278.695312 C 168.703125 278.070312 168.925781 277.453125 169.175781 276.847656 C 169.425781 276.238281 169.707031 275.648438 170.015625 275.070312 C 170.324219 274.488281 170.660156 273.929688 171.027344 273.382812 C 171.390625 272.835938 171.78125 272.308594 172.195312 271.804688 C 172.613281 271.296875 173.050781 270.808594 173.515625 270.347656 C 173.980469 269.882812 174.464844 269.441406 174.972656 269.027344 C 175.480469 268.609375 176.007812 268.21875 176.550781 267.855469 C 177.097656 267.488281 177.660156 267.152344 178.238281 266.84375 C 178.816406 266.535156 179.40625 266.253906 180.011719 266.003906 C 180.621094 265.753906 181.238281 265.53125 181.863281 265.339844 C 182.492188 265.152344 183.128906 264.992188 183.769531 264.863281 C 184.414062 264.734375 185.0625 264.640625 185.714844 264.574219 C 186.367188 264.511719 187.023438 264.476562 187.675781 264.476562 C 188.332031 264.476562 188.988281 264.511719 189.640625 264.574219 C 190.292969 264.640625 190.941406 264.734375 191.585938 264.863281 C 192.226562 264.992188 192.863281 265.152344 193.492188 265.339844 C 194.117188 265.53125 194.734375 265.753906 195.339844 266.003906 C 195.949219 266.253906 196.539062 266.535156 197.117188 266.84375 C 197.695312 267.152344 198.257812 267.488281 198.804688 267.855469 C 199.347656 268.21875 199.875 268.609375 200.382812 269.027344 C 200.890625 269.441406 201.375 269.882812 201.839844 270.347656 C 202.300781 270.808594 202.742188 271.296875 203.160156 271.804688 C 203.574219 272.308594 203.964844 272.835938 204.328125 273.382812 C 204.695312 273.929688 205.03125 274.488281 205.339844 275.070312 C 205.648438 275.648438 205.929688 276.238281 206.179688 276.847656 C 206.429688 277.453125 206.652344 278.070312 206.84375 278.695312 C 207.03125 279.324219 207.191406 279.960938 207.320312 280.605469 C 207.449219 281.246094 207.542969 281.894531 207.609375 282.550781 C 207.671875 283.203125 207.703125 283.855469 207.703125 284.511719 Z M 207.703125 284.511719 " fill-opacity="1" fill-rule="nonzero"/></svg>