<svg xmlns="http://www.w3.org/2000/svg" xmlns:xlink="http://www.w3.org/1999/xlink" width="500" zoomAndPan="magnify" viewBox="0 0 375 374.999991" height="500" preserveAspectRatio="xMidYMid meet" version="1.0"><defs><clipPath id="662b8ea6bf"><path d="M 15.742188 55.402344 L 359.242188 55.402344 L 359.242188 186 L 15.742188 186 Z M 15.742188 55.402344 " clip-rule="nonzero"/></clipPath><clipPath id="faf9ce8e14"><path d="M 15.742188 113 L 359.242188 113 L 359.242188 319.402344 L 15.742188 319.402344 Z M 15.742188 113 " clip-rule="nonzero"/></clipPath></defs><g clip-path="url(#662b8ea6bf)"><path fill="#63339a" d="M 187.492188 185.210938 L 359.207031 82.25 L 359.207031 81.800781 C 359.207031 80.9375 359.164062 80.074219 359.078125 79.214844 C 358.996094 78.351562 358.867188 77.5 358.699219 76.652344 C 358.53125 75.804688 358.320312 74.964844 358.070312 74.136719 C 357.816406 73.308594 357.527344 72.496094 357.195312 71.699219 C 356.863281 70.898438 356.496094 70.117188 356.085938 69.355469 C 355.679688 68.59375 355.234375 67.851562 354.753906 67.132812 C 354.273438 66.414062 353.757812 65.722656 353.210938 65.054688 C 352.660156 64.386719 352.082031 63.746094 351.46875 63.132812 C 350.855469 62.523438 350.21875 61.941406 349.546875 61.394531 C 348.878906 60.84375 348.183594 60.332031 347.464844 59.851562 C 346.746094 59.371094 346.003906 58.925781 345.242188 58.519531 C 344.480469 58.109375 343.699219 57.742188 342.898438 57.410156 C 342.097656 57.082031 341.285156 56.789062 340.457031 56.539062 C 339.628906 56.289062 338.792969 56.078125 337.941406 55.910156 C 337.09375 55.738281 336.238281 55.613281 335.378906 55.527344 C 334.515625 55.445312 333.652344 55.402344 332.789062 55.402344 L 42.191406 55.402344 C 41.328125 55.402344 40.464844 55.445312 39.601562 55.527344 C 38.742188 55.613281 37.886719 55.738281 37.039062 55.910156 C 36.191406 56.078125 35.351562 56.289062 34.523438 56.539062 C 33.695312 56.789062 32.882812 57.082031 32.082031 57.410156 C 31.285156 57.742188 30.503906 58.109375 29.738281 58.519531 C 28.976562 58.925781 28.234375 59.371094 27.515625 59.851562 C 26.796875 60.332031 26.101562 60.84375 25.433594 61.394531 C 24.765625 61.941406 24.125 62.523438 23.511719 63.132812 C 22.902344 63.746094 22.320312 64.386719 21.769531 65.054688 C 21.222656 65.722656 20.707031 66.414062 20.226562 67.132812 C 19.746094 67.851562 19.300781 68.59375 18.894531 69.355469 C 18.484375 70.117188 18.117188 70.898438 17.785156 71.699219 C 17.453125 72.496094 17.164062 73.308594 16.914062 74.136719 C 16.660156 74.964844 16.449219 75.804688 16.28125 76.652344 C 16.113281 77.5 15.988281 78.351562 15.902344 79.214844 C 15.816406 80.074219 15.773438 80.9375 15.773438 81.800781 L 15.773438 82.25 Z M 187.492188 185.210938 " fill-opacity="1" fill-rule="nonzero"/></g><g clip-path="url(#faf9ce8e14)"><path fill="#63339a" d="M 194.292969 211.914062 C 193.265625 212.53125 192.175781 213 191.019531 213.320312 C 189.867188 213.640625 188.6875 213.800781 187.492188 213.800781 C 186.292969 213.800781 185.117188 213.640625 183.960938 213.320312 C 182.804688 213 181.714844 212.53125 180.6875 211.914062 L 15.773438 113.03125 L 15.773438 293 C 15.773438 293.867188 15.816406 294.730469 15.902344 295.589844 C 15.988281 296.449219 16.113281 297.304688 16.28125 298.152344 C 16.449219 299 16.660156 299.835938 16.914062 300.664062 C 17.164062 301.492188 17.453125 302.304688 17.785156 303.105469 C 18.117188 303.902344 18.484375 304.683594 18.894531 305.445312 C 19.300781 306.207031 19.746094 306.949219 20.226562 307.667969 C 20.707031 308.386719 21.222656 309.082031 21.769531 309.75 C 22.320312 310.417969 22.902344 311.058594 23.511719 311.667969 C 24.125 312.28125 24.765625 312.859375 25.433594 313.410156 C 26.101562 313.957031 26.796875 314.472656 27.515625 314.953125 C 28.234375 315.433594 28.976562 315.875 29.738281 316.285156 C 30.503906 316.691406 31.285156 317.0625 32.082031 317.390625 C 32.882812 317.722656 33.695312 318.011719 34.523438 318.265625 C 35.351562 318.515625 36.191406 318.726562 37.039062 318.894531 C 37.886719 319.0625 38.742188 319.191406 39.601562 319.273438 C 40.464844 319.359375 41.328125 319.402344 42.191406 319.402344 L 332.789062 319.402344 C 333.652344 319.402344 334.515625 319.359375 335.378906 319.273438 C 336.238281 319.191406 337.09375 319.0625 337.941406 318.894531 C 338.792969 318.726562 339.628906 318.515625 340.457031 318.265625 C 341.285156 318.011719 342.097656 317.722656 342.898438 317.390625 C 343.699219 317.0625 344.480469 316.691406 345.242188 316.285156 C 346.003906 315.875 346.746094 315.433594 347.464844 314.953125 C 348.183594 314.472656 348.878906 313.957031 349.546875 313.410156 C 350.21875 312.859375 350.855469 312.28125 351.46875 311.667969 C 352.082031 311.058594 352.660156 310.417969 353.210938 309.75 C 353.757812 309.082031 354.273438 308.386719 354.753906 307.667969 C 355.234375 306.949219 355.679688 306.207031 356.085938 305.445312 C 356.496094 304.683594 356.863281 303.902344 357.195312 303.105469 C 357.527344 302.304688 357.816406 301.492188 358.070312 300.664062 C 358.320312 299.835938 358.53125 299 358.699219 298.152344 C 358.867188 297.304688 358.996094 296.449219 359.078125 295.589844 C 359.164062 294.730469 359.207031 293.867188 359.207031 293 L 359.207031 113.03125 Z M 194.292969 211.914062 " fill-opacity="1" fill-rule="nonzero"/></g></svg>