<svg xmlns="http://www.w3.org/2000/svg" xmlns:xlink="http://www.w3.org/1999/xlink" width="500" zoomAndPan="magnify" viewBox="0 0 375 374.999991" height="500" preserveAspectRatio="xMidYMid meet" version="1.0"><defs><clipPath id="b82970d1e2"><path d="M 50.191406 61 L 324.691406 61 L 324.691406 314 L 50.191406 314 Z M 50.191406 61 " clip-rule="nonzero"/></clipPath></defs><g clip-path="url(#b82970d1e2)"><path fill="#63339a" d="M 308.710938 102.238281 L 66.683594 102.238281 C 57.90625 102.238281 50.445312 109.703125 50.445312 118.488281 L 50.445312 237.320312 C 50.445312 246.105469 57.90625 253.570312 66.683594 253.570312 L 108.289062 253.570312 L 108.289062 204.3125 L 85.964844 204.3125 L 85.964844 194.15625 L 288.921875 194.15625 L 288.921875 204.3125 L 266.089844 204.3125 L 266.089844 253.570312 L 308.710938 253.570312 C 317.488281 253.570312 324.945312 246.105469 324.945312 237.320312 L 324.945312 118.488281 C 324.945312 109.703125 317.488281 102.238281 308.710938 102.238281 Z M 99.15625 126.613281 L 75.816406 126.613281 L 75.816406 116.457031 L 99.15625 116.457031 Z M 118.4375 204.3125 L 118.4375 296.226562 C 118.4375 305.570312 126.351562 313.492188 135.6875 313.492188 L 238.6875 313.492188 C 248.023438 313.492188 255.941406 305.570312 255.941406 296.226562 L 255.941406 204.3125 Z M 236.660156 284.546875 L 138.226562 284.546875 L 138.226562 274.390625 L 236.660156 274.390625 Z M 236.660156 242.90625 L 138.226562 242.90625 L 138.226562 232.75 L 236.660156 232.75 Z M 249.34375 61.613281 L 126.046875 61.613281 C 119.707031 61.613281 114.378906 66.945312 114.378906 73.292969 L 114.378906 92.082031 L 261.015625 92.082031 L 261.015625 73.292969 C 261.015625 66.945312 255.6875 61.613281 249.34375 61.613281 Z M 249.34375 61.613281 " fill-opacity="1" fill-rule="nonzero"/></g></svg>