<svg xmlns="http://www.w3.org/2000/svg" xmlns:xlink="http://www.w3.org/1999/xlink" width="500" zoomAndPan="magnify" viewBox="0 0 375 374.999991" height="500" preserveAspectRatio="xMidYMid meet" version="1.0"><path fill="#63339a" d="M 229.714844 55.757812 C 237.132812 58.121094 244.285156 61.101562 251.101562 64.625 C 253.675781 65.957031 255.003906 68.738281 254.417969 71.578125 C 251.6875 84.84375 255.464844 99.191406 265.753906 109.484375 C 276.050781 119.773438 290.394531 123.554688 303.65625 120.820312 C 306.5 120.234375 309.277344 121.5625 310.609375 124.132812 C 314.140625 130.957031 317.113281 138.101562 319.484375 145.523438 C 320.371094 148.289062 319.339844 151.191406 316.917969 152.789062 C 305.59375 160.238281 298.125 173.058594 298.125 187.617188 C 298.125 202.179688 305.59375 215 316.917969 222.441406 C 319.339844 224.035156 320.371094 226.945312 319.484375 229.710938 C 317.113281 237.132812 314.140625 244.285156 310.609375 251.105469 C 309.277344 253.679688 306.5 255.003906 303.660156 254.417969 C 290.394531 251.6875 276.050781 255.460938 265.753906 265.761719 C 255.464844 276.054688 251.6875 290.394531 254.417969 303.664062 C 255.007812 306.503906 253.675781 309.28125 251.101562 310.617188 C 244.28125 314.144531 237.132812 317.117188 229.714844 319.484375 C 226.945312 320.367188 224.042969 319.339844 222.445312 316.914062 C 214.996094 305.597656 202.183594 298.125 187.617188 298.125 C 173.058594 298.125 160.238281 305.597656 152.792969 316.914062 C 151.199219 319.339844 148.289062 320.367188 145.53125 319.484375 C 138.109375 317.117188 130.953125 314.140625 124.136719 310.617188 C 121.558594 309.28125 120.234375 306.503906 120.820312 303.664062 C 123.554688 290.394531 119.777344 276.054688 109.480469 265.761719 C 99.183594 255.460938 84.84375 251.6875 71.578125 254.417969 C 68.742188 255.003906 65.960938 253.679688 64.625 251.105469 C 61.09375 244.28125 58.117188 237.128906 55.75 229.707031 C 54.871094 226.945312 55.894531 224.035156 58.320312 222.441406 C 69.644531 214.996094 77.113281 202.179688 77.113281 187.617188 C 77.113281 173.058594 69.644531 160.238281 58.320312 152.789062 C 55.894531 151.195312 54.871094 148.289062 55.75 145.523438 C 58.117188 138.101562 61.09375 130.953125 64.625 124.132812 C 65.960938 121.5625 68.742188 120.234375 71.578125 120.820312 C 84.84375 123.554688 99.1875 119.773438 109.480469 109.484375 C 119.777344 99.191406 123.550781 84.84375 120.820312 71.582031 C 120.234375 68.738281 121.558594 65.957031 124.136719 64.625 C 130.953125 61.101562 138.109375 58.121094 145.53125 55.753906 C 148.289062 54.871094 151.199219 55.902344 152.792969 58.324219 C 160.238281 69.640625 173.058594 77.121094 187.617188 77.121094 C 202.183594 77.121094 214.996094 69.640625 222.445312 58.324219 C 224.042969 55.902344 226.945312 54.871094 229.714844 55.757812 Z M 210.320312 135.703125 C 221.15625 143.003906 228.28125 155.386719 228.28125 169.433594 C 228.28125 185.21875 219.28125 198.910156 206.132812 205.640625 C 204.714844 206.363281 203.882812 207.726562 203.882812 209.320312 L 203.882812 255.460938 C 198.664062 256.707031 193.21875 257.371094 187.617188 257.371094 C 182.015625 257.371094 176.574219 256.710938 171.355469 255.460938 L 171.355469 209.320312 C 171.355469 207.726562 170.519531 206.371094 169.109375 205.640625 C 155.957031 198.910156 146.957031 185.222656 146.957031 169.433594 C 146.957031 155.382812 154.082031 143 164.914062 135.699219 C 166.21875 134.820312 167.777344 134.738281 169.164062 135.476562 C 170.546875 136.214844 171.355469 137.554688 171.355469 139.121094 L 171.355469 174.597656 C 171.355469 176.871094 173.210938 178.726562 175.480469 178.726562 L 199.753906 178.726562 C 202.03125 178.726562 203.882812 176.871094 203.882812 174.597656 L 203.882812 139.125 C 203.882812 137.554688 204.691406 136.214844 206.074219 135.476562 C 207.457031 134.742188 209.023438 134.824219 210.320312 135.703125 Z M 187.617188 108.269531 C 231.445312 108.269531 266.96875 143.796875 266.96875 187.621094 C 266.96875 231.441406 231.445312 266.96875 187.617188 266.96875 C 143.796875 266.96875 108.265625 231.441406 108.265625 187.621094 C 108.265625 143.796875 143.796875 108.269531 187.617188 108.269531 Z M 187.617188 108.269531 " fill-opacity="1" fill-rule="evenodd"/></svg>